# xmcd CD database file
#
# Track frame offsets:
#	180
#	28378
#	63563
#	92267
#	113971
#	126992
#	161278
#	190225
#	211118
#	218009
#	235001
#	262899
#
# Disc length: 3801 seconds
#
# Revision: 1
# Processed by: cddbd v1.5.2PL0 Copyright (c) Steve Scherf et al.
# Submitted via: CDex 1.77
#
DISCID=9f0ed70c
DTITLE=Peter King - Tamburello
DYEAR=1995
DGENRE=Jazz
TTITLE0=Dido's Lament
TTITLE1=You Taught My Heart How To Sing
TTITLE2=Boxer's Demise
TTITLE3=Leona
TTITLE4=Bess, Oh Where's My Bess?
TTITLE5=My Man's Gone Now
TTITLE6=Yes Or No
TTITLE7=Please Don't Ever Leave Me
TTITLE8=Theme From Bartok's Violin Concerto No. 2, Second Movement, Andante Tranquillo
TTITLE9=Tamburello
TTITLE10=Ayrton
TTITLE11=Imola
EXTD=YEAR: 1995
EXTT0=
EXTT1=
EXTT2=
EXTT3=
EXTT4=
EXTT5=
EXTT6=
EXTT7=
EXTT8=
EXTT9=
EXTT10=
EXTT11=
PLAYORDER=
